# Exact saved genus-one correction surface, scaled from integer denominator 10^12.
# R and a are marked curves. This is not a modifying annulus or a slice disk.
o CorrectionSurface
v 895 399.9999999 500
v 895 395 500
v 899.9999999 395 500
v 900.0000001 395 500
v 905 395 500
v 905 399.9999999 500
v 905 400.0000001 500
v 905 405 500
v 900.0000001 405 500
v 899.9999999 405 500
v 895 405 500
v 895 400.0000001 500
v 900 400 500
v 895 400.0000001 520
v 892.999999969827 400.000000095339 520
v 205.365153147095 -83.698486372191 520
v 205.335985054474 -83.669318246385 520
v 205.335985054474 -83.669318246385 0.0075
v 205.343940005762 -83.677273197674 0
v 205.333333404044 -83.666666595956 -0.015
v 205.322726802326 -83.656059994238 0
v 205.330681753615 -83.664014945527 0.0075
v 205.330681753615 -83.664014945527 520
v 205.301513624628 -83.634846835098 520
v 220.50068183924 -24.294994847353 520
v 220.50005691165 -24.253749568118 520
v 220.50005691165 -24.253749568118 0.0075
v 220.500227346633 -24.264998277018 0
v 220.500000099988 -24.249999998485 -0.015
v 220.499772853344 -24.235001719952 0
v 220.499943288327 -24.246250428852 0.0075
v 220.499943288327 -24.246250428852 520
v 220.499318329502 -24.205005092437 520
v 204.000681809369 -24.544994763636 520
v 204.00005691165 -24.503749568118 520
v 204.00005691165 -24.503749568118 0.0075
v 204.000227346633 -24.514998277018 0
v 204.000000099988 -24.499999998485 -0.015
v 203.999772853344 -24.485001719952 0
v 203.999943288327 -24.496250428852 0.0075
v 203.999943288327 -24.496250428852 520
v 203.999318328982 -24.455005091939 520
v 30.468180286551 -30.531819765274 520
v 30.497348420281 -30.50265172114 520
v 30.497348420281 -30.50265172114 0.0075
v 30.489393468993 -30.510606672428 0
v 30.500000070711 -30.500000070711 -0.015
v 30.510606672428 -30.489393468993 0
v 30.50265172114 -30.497348420281 0.0075
v 30.50265172114 -30.497348420281 520
v 30.531819863596 -30.468180275992 520
v 892.999999093575 400.00000290973 520
v 914.999999945861 409.999999915923 520
v 914.999999929289 400.000000070711 520
v 905 400.0000001 520
v 895 399.9999999 520
v 893.000000030173 399.999999904661 520
v 205.365153129878 -83.698486571449 520
v 205.335984913052 -83.669318387807 520
v 205.335984913052 -83.669318387807 0.0075
v 205.34393986434 -83.677273339095 0
v 205.333333262623 -83.666666737377 -0.015
v 205.322726660905 -83.65606013566 0
v 205.330681612193 -83.664015086948 0.0075
v 205.330681612193 -83.664015086948 520
v 205.301513431732 -83.634846887929 520
v 220.500681640626 -24.294994823847 520
v 220.500056711673 -24.253749571148 520
v 220.500056711673 -24.253749571148 0.0075
v 220.500227146656 -24.264998280048 0
v 220.499999900012 -24.250000001515 -0.015
v 220.499772653367 -24.235001722982 0
v 220.49994308835 -24.246250431882 0.0075
v 220.49994308835 -24.246250431882 520
v 220.499318190631 -24.205005236364 520
v 204.000681670498 -24.544994907563 520
v 204.000056711673 -24.503749571148 520
v 204.000056711673 -24.503749571148 0.0075
v 204.000227146656 -24.514998280048 0
v 203.999999900012 -24.500000001515 -0.015
v 203.999772653367 -24.485001722982 0
v 203.99994308835 -24.496250431882 0.0075
v 203.99994308835 -24.496250431882 520
v 203.999318191151 -24.455005236862 520
v 30.468180103143 -30.531819845033 520
v 30.49734827886 -30.502651579719 520
v 30.49734827886 -30.502651579719 0.0075
v 30.489393327572 -30.510606531007 0
v 30.499999929289 -30.499999929289 -0.015
v 30.510606531007 -30.489393327572 0
v 30.502651579719 -30.49734827886 0.0075
v 30.502651579719 -30.49734827886 520
v 30.531819746711 -30.468180113702 520
v 892.999999007523 400.00000309027 520
v 915.000000054139 410.000000084077 520
v 915.000000070711 399.999999929289 520
v 905 399.9999999 520
v 899.9999999 395 540
v 899.999999914096 393.000000051191 540
v 61.031819745378 -60.968180114678 540
v 61.002651579719 -60.99734827886 540
v 61.002651579719 -60.99734827886 0.0075
v 61.010606531007 -60.989393327572 0
v 60.999999929289 -60.999999929289 -0.015
v 60.989393327572 -61.010606531007 0
v 60.99734827886 -61.002651579719 0.0075
v 60.99734827886 -61.002651579719 540
v 60.968180094847 -61.031819805258 540
v 91.531819705153 -91.468180194951 540
v 91.502651579719 -91.49734827886 540
v 91.502651579719 -91.49734827886 0.0075
v 91.510606531007 -91.489393327572 0
v 91.499999929289 -91.499999929289 -0.015
v 91.489393327572 -91.510606531007 0
v 91.49734827886 -91.502651579719 0.0075
v 91.49734827886 -91.502651579719 540
v 91.468180194847 -91.531819705153 540
v 60.968176044428 -61.031819783929 540
v 60.979212801508 -60.991389664256 540
v 60.984090171658 -60.984090164424 540
v 123.333113914134 -9.378332840735 540
v 123.333315140867 -9.337083289206 540
v 123.333315140867 -9.337083289206 0.0075
v 123.333260263471 -9.348333155359 0
v 123.333333433332 -9.333333333821 -0.015
v 123.333406603193 -9.318333512283 0
v 123.333351725797 -9.329583378437 0.0075
v 123.333351725797 -9.329583378437 540
v 123.333552891625 -9.288333781383 540
v 64.508610339833 -46.020787196737 540
v 64.466233934602 -46.029746329572 540
v 64.497186219872 -46.002478939572 540
v 64.497186219872 -46.002478939572 0.0075
v 64.488744681181 -46.009915533182 0
v 64.500000066103 -46.000000075036 -0.015
v 64.511255451026 -45.99008461689 0
v 64.502813912334 -45.997521210499 0.0075
v 64.502813912334 -45.997521210499 540
v 64.533766244138 -45.970253580696 540
v 64.49138958395 -45.979212618362 540
v 64.484090026713 -45.984090026713 540
v 64.479212620814 -45.991389578577 540
v 64.466223197883 -46.029751644019 540
v 60.968172498911 -61.031820726976 540
v 91.468180169191 -91.531824144447 540
v 91.508610418712 -91.520787380471 540
v 91.515909962075 -91.51590998295 540
v 191.666886133194 -9.621667292309 540
v 191.666684859133 -9.662916710794 540
v 191.666684859133 -9.662916710794 0.0075
v 191.666739736529 -9.651666844641 0
v 191.666666566668 -9.666666666179 -0.015
v 191.666593396807 -9.681666487717 0
v 191.666648274203 -9.670416621563 0.0075
v 191.666648274203 -9.670416621563 540
v 191.666447060982 -9.711666103628 540
v 121.979212618844 -121.991389582825 540
v 121.968180144648 -122.031819891641 540
v 121.997348420281 -122.00265172114 540
v 121.997348420281 -122.00265172114 0.0075
v 121.989393468993 -122.010606672428 0
v 122.000000070711 -122.000000070711 -0.015
v 122.010606672428 -121.989393468993 0
v 122.00265172114 -121.997348420281 0.0075
v 122.00265172114 -121.997348420281 540
v 122.031819882333 -121.968180258434 540
v 187.50068183579 -24.794994864086 540
v 187.50005691165 -24.753749568118 540
v 187.50005691165 -24.753749568118 0.0075
v 187.500227346633 -24.764998277018 0
v 187.500000099988 -24.749999998485 -0.015
v 187.499772853344 -24.735001719952 0
v 187.499943288327 -24.746250428852 0.0075
v 187.499943288327 -24.746250428852 540
v 187.499318287136 -24.705005260667 540
v 187.520787196059 -24.74138965844 540
v 187.5224999 -24.75 540
v 187.520787192162 -24.758610354231 540
v 152.479212614064 -152.491389596381 540
v 152.468180144648 -152.531819891641 540
v 152.497348420281 -152.50265172114 540
v 152.497348420281 -152.50265172114 0.0075
v 152.489393468993 -152.510606672428 0
v 152.500000070711 -152.500000070711 -0.015
v 152.510606672428 -152.489393468993 0
v 152.50265172114 -152.497348420281 0.0075
v 152.50265172114 -152.497348420281 540
v 152.531819754955 -152.468180281334 540
v 152.52078719849 -152.508610335748 540
v 152.515909831866 -152.515909831866 540
v 152.50861033574 -152.520787198494 540
v 152.468174351587 -152.53182982005 540
v 121.968174420367 -122.031829883798 540
v 123.531819848658 -108.468180104806 540
v 123.502651579719 -108.49734827886 540
v 123.502651579719 -108.49734827886 0.0075
v 123.510606531007 -108.489393327572 0
v 123.499999929289 -108.499999929289 -0.015
v 123.489393327572 -108.510606531007 0
v 123.49734827886 -108.502651579719 0.0075
v 123.49734827886 -108.502651579719 540
v 123.468180104716 -108.531819761834 540
v 121.968171085311 -122.031831046184 540
v 152.468173410492 -152.531833366206 540
v 152.508611679732 -152.520790145955 540
v 152.515912133145 -152.515912139065 540
v 215.634846867141 -73.301513628022 540
v 215.664014945527 -73.330681753615 540
v 215.664014945527 -73.330681753615 0.0075
v 215.656059994238 -73.322726802326 0
v 215.666666595956 -73.333333404044 -0.015
v 215.677273197674 -73.343940005762 0
v 215.669318246385 -73.335985054473 0.0075
v 215.669318246385 -73.335985054473 540
v 215.698486462475 -73.365153238049 540
v 900.000003088407 392.999998165543 540
v 900.000003097325 395.000000022975 540
v 890.000000085065 414.999999947427 540
v 899.999999929289 414.999999929289 540
v 899.9999999 405 540
v 900.0000001 395 540
v 900.000000085904 392.999999948809 540
v 61.031819864928 -60.968180275015 540
v 61.00265172114 -60.997348420281 540
v 61.00265172114 -60.997348420281 0.0075
v 61.010606672428 -60.989393468993 0
v 61.000000070711 -61.000000070711 -0.015
v 60.989393468993 -61.010606672428 0
v 60.997348420281 -61.00265172114 0.0075
v 60.997348420281 -61.00265172114 540
v 60.968180294847 -61.031819805049 540
v 91.531819905153 -91.468180194742 540
v 91.50265172114 -91.497348420281 540
v 91.50265172114 -91.497348420281 0.0075
v 91.510606672428 -91.489393468993 0
v 91.500000070711 -91.500000070711 -0.015
v 91.489393468993 -91.510606672428 0
v 91.497348420281 -91.50265172114 0.0075
v 91.497348420281 -91.50265172114 540
v 91.468180194847 -91.531819905153 540
v 60.968175851122 -61.03181983524 540
v 60.979212619529 -60.991389581288 540
v 60.984090023188 -60.984090030422 540
v 123.333113733366 -9.37833275516 540
v 123.333314940869 -9.33708328823 540
v 123.333314940869 -9.33708328823 0.0075
v 123.333260063473 -9.348333154384 0
v 123.333333233335 -9.333333332846 -0.015
v 123.333406403196 -9.318333511308 0
v 123.3333515258 -9.329583377461 0.0075
v 123.3333515258 -9.329583377461 540
v 123.333552794209 -9.288333956055 540
v 64.508610414624 -46.020787382226 540
v 64.466233755862 -46.029746419304 540
v 64.497186087666 -46.002478789501 540
v 64.497186087666 -46.002478789501 0.0075
v 64.488744548974 -46.00991538311 0
v 64.499999933897 -45.999999924964 -0.015
v 64.511255318819 -45.990084466818 0
v 64.502813780128 -45.997521060428 0.0075
v 64.502813780128 -45.997521060428 540
v 64.533766065398 -45.970253670428 540
v 64.491389661594 -45.979212802675 540
v 64.484090168134 -45.984090168134 540
v 64.479212800223 -45.991389666966 540
v 64.466223390216 -46.029751698863 540
v 60.968172691223 -61.031820672058 540
v 91.468180220502 -91.531823951141 540
v 91.508610335744 -91.520787198492 540
v 91.515909843078 -91.515909822203 540
v 191.666886219306 -9.621667111797 540
v 191.666685059131 -9.66291671177 540
v 191.666685059131 -9.66291671177 0.0075
v 191.666739936527 -9.651666845616 0
v 191.666666766665 -9.666666667154 -0.015
v 191.666593596804 -9.681666488692 0
v 191.6666484742 -9.670416622539 0.0075
v 191.6666484742 -9.670416622539 540
v 191.666447253184 -9.711666158933 540
v 121.979212802193 -121.991389662718 540
v 121.968180245045 -122.031819718666 540
v 121.99734827886 -122.002651579719 540
v 121.99734827886 -122.002651579719 0.0075
v 121.989393327572 -122.010606531007 0
v 121.999999929289 -121.999999929289 -0.015
v 122.010606531007 -121.989393327572 0
v 122.002651579719 -121.99734827886 0.0075
v 122.002651579719 -121.99734827886 540
v 122.031819727974 -121.968180131259 540
v 187.500681644077 -24.794994807114 540
v 187.500056711673 -24.753749571148 540
v 187.500056711673 -24.753749571148 0.0075
v 187.500227146656 -24.764998280048 0
v 187.499999900012 -24.750000001515 -0.015
v 187.499772653367 -24.735001722982 0
v 187.49994308835 -24.746250431882 0.0075
v 187.49994308835 -24.746250431882 540
v 187.499318232997 -24.705005068134 540
v 187.520787382904 -24.741389587104 540
v 187.5225001 -24.75 540
v 187.520787386801 -24.758610400225 540
v 152.479212806973 -152.491389649162 540
v 152.468180245045 -152.531819718666 540
v 152.49734827886 -152.502651579719 540
v 152.49734827886 -152.502651579719 0.0075
v 152.489393327572 -152.510606531007 0
v 152.499999929289 -152.499999929289 -0.015
v 152.510606531007 -152.489393327572 0
v 152.502651579719 -152.49734827886 0.0075
v 152.502651579719 -152.49734827886 540
v 152.531819855352 -152.468180108359 540
v 152.520787380473 -152.508610418708 540
v 152.515909973287 -152.515909973287 540
v 152.508610418717 -152.520787380469 540
v 152.468174300286 -152.531830013359 540
v 121.968174231505 -122.031829949611 540
v 123.531819761649 -108.468180284888 540
v 123.50265172114 -108.497348420281 540
v 123.50265172114 -108.497348420281 0.0075
v 123.510606672428 -108.489393468993 0
v 123.500000070711 -108.500000070711 -0.015
v 123.489393468993 -108.510606672428 0
v 123.497348420281 -108.50265172114 0.0075
v 123.497348420281 -108.50265172114 540
v 123.468180284977 -108.531819848472 540
v 121.968171274037 -122.031830979983 540
v 152.468173461793 -152.531833172898 540
v 152.508611596755 -152.52078996398 540
v 152.515911997767 -152.515911991848 540
v 215.634846855886 -73.301513428338 540
v 215.664015086948 -73.330681612193 540
v 215.664015086948 -73.330681612193 0.0075
v 215.65606013566 -73.322726660905 0
v 215.666666737377 -73.333333262623 -0.015
v 215.677273339095 -73.34393986434 0
v 215.669318387807 -73.335984913052 0.0075
v 215.669318387807 -73.335984913052 540
v 215.698486481166 -73.365153038924 540
v 900.000002911593 392.999998259013 540
v 900.000002902675 394.999999977025 540
v 889.999999914935 415.000000052573 540
v 900.000000070711 415.000000070711 540
v 900.0000001 405 540
v 895 402.50000015 500
v 895 402.49999995 500
v 136.00000009 -33.999999995 0.5000000025
v 136 -33.9999999 600
v 885 402.50000015 600
v 885 402.50000015 500
v 135.99999991 -34.000000005 0.4999999975
v 136 -34.0000001 600
v 885 402.49999995 600
v 885 402.49999995 500
v 154 -33 1
v 138 -39 0
v 138 -40 0
v 138 -41 1
v 164 -67 0
v 165 -68 0
v 167 -66 0
v 194 -38 0
v 194 -37 0
v 198 -36 0
v 206 -37 0
v 207 -38 0
v 215 -30 0
v 215 -29 0
v 215 -28 0
v 237 -24 1
v 237 -23 0
v 238 -22 0
v 243 -21 0
v 252 -30 0
v 263 -19 0
v 264 -18 1
v 269 -12 0
v 268 -10 0
v 563 -9 1
v 556 -15 0
v 556 -16 0
v 538 -45 1
v 528 -35 0
v 527 -34 0
v 524 -31 0
v 529 -25 0
v 528 -24 0
v 527 -23 1
v 421 -25 0
v 422 -27 0
v 422 -28 1
v 426 -32 0
v 427 -33 0
v 419 -52 1
v 422 -53 0
v 416 -60 0
v 426 -71 0
v 426 -72 0
v 426 -73 0
v 433 -85 0
v 468 -50 0
v 469 -49 0
v 470 -48 1
v 480 -53 0
v 489 -44 0
v 490 -43 1
v 516 -67 0
v 517 -68 0
v 573 -12 0
v 573 -11 0
v 573 -10 0
v 577 -5 0
v 54 -6 0
v 55 -8 0
v 55 -9 1
v 72 -12 0
v 73 -13 0
v 254 -11 0
v 86 -17 0
v 77 -16 0
v 86 -18 0
v 100 -28 0
v 100 -29 0
v 100 -30 0
v 117 -34 0
v 118 -35 0
v 154 -33 0.99999
v 138 -39 -0.00001
v 138 -40 -0.00001
v 138 -41 0.99999
v 164 -67 -0.00001
v 165 -68 -0.00001
v 167 -66 -0.00001
v 194 -38 -0.00001
v 194 -37 -0.00001
v 198 -36 -0.00001
v 206 -37 -0.00001
v 207 -38 -0.00001
v 215 -30 -0.00001
v 215 -29 -0.00001
v 215 -28 -0.00001
v 237 -24 0.99999
v 237 -23 -0.00001
v 238 -22 -0.00001
v 243 -21 -0.00001
v 252 -30 -0.00001
v 263 -19 -0.00001
v 264 -18 0.99999
v 269 -12 -0.00001
v 268 -10 -0.00001
v 563 -9 0.99999
v 556 -15 -0.00001
v 556 -16 -0.00001
v 538 -45 0.99999
v 528 -35 -0.00001
v 527 -34 -0.00001
v 524 -31 -0.00001
v 529 -25 -0.00001
v 528 -24 -0.00001
v 527 -23 0.99999
v 421 -25 -0.00001
v 422 -27 -0.00001
v 422 -28 0.99999
v 426 -32 -0.00001
v 427 -33 -0.00001
v 419 -52 0.99999
v 422 -53 -0.00001
v 416 -60 -0.00001
v 426 -71 -0.00001
v 426 -72 -0.00001
v 426 -73 -0.00001
v 433 -85 -0.00001
v 468 -50 -0.00001
v 469 -49 -0.00001
v 470 -48 0.99999
v 480 -53 -0.00001
v 489 -44 -0.00001
v 490 -43 0.99999
v 516 -67 -0.00001
v 517 -68 -0.00001
v 573 -12 -0.00001
v 573 -11 -0.00001
v 573 -10 -0.00001
v 577 -5 -0.00001
v 54 -6 -0.00001
v 55 -8 -0.00001
v 55 -9 0.99999
v 72 -12 -0.00001
v 73 -13 -0.00001
v 254 -11 -0.00001
v 86 -17 -0.00001
v 77 -16 -0.00001
v 86 -18 -0.00001
v 100 -28 -0.00001
v 100 -29 -0.00001
v 100 -30 -0.00001
v 117 -34 -0.00001
v 118 -35 -0.00001
v 135.99999991 -34.000000005 0.4999899975
v 136.00000009 -33.999999995 0.4999900025
f 13 1 2
f 13 2 3
f 13 3 4
f 13 4 5
f 13 5 6
f 13 6 7
f 13 7 8
f 13 8 9
f 13 9 10
f 13 10 11
f 13 11 344
f 13 344 345
f 13 345 12
f 13 12 1
f 12 1 14
f 1 56 14
f 14 56 15
f 56 57 15
f 15 57 16
f 57 58 16
f 16 58 17
f 58 59 17
f 17 59 18
f 59 60 18
f 18 60 19
f 60 61 19
f 19 61 20
f 61 62 20
f 20 62 21
f 62 63 21
f 21 63 22
f 63 64 22
f 22 64 23
f 64 65 23
f 23 65 24
f 65 66 24
f 24 66 25
f 66 67 25
f 25 67 26
f 67 68 26
f 26 68 27
f 68 69 27
f 27 69 28
f 69 70 28
f 28 70 29
f 70 71 29
f 29 71 30
f 71 72 30
f 30 72 31
f 72 73 31
f 31 73 32
f 73 74 32
f 32 74 33
f 74 75 33
f 33 75 34
f 75 76 34
f 34 76 35
f 76 77 35
f 35 77 36
f 77 78 36
f 36 78 37
f 78 79 37
f 37 79 38
f 79 80 38
f 38 80 39
f 80 81 39
f 39 81 40
f 81 82 40
f 40 82 41
f 82 83 41
f 41 83 42
f 83 84 42
f 42 84 43
f 84 85 43
f 43 85 44
f 85 86 44
f 44 86 45
f 86 87 45
f 45 87 46
f 87 88 46
f 46 88 47
f 88 89 47
f 47 89 48
f 89 90 48
f 48 90 49
f 90 91 49
f 49 91 50
f 91 92 50
f 50 92 51
f 92 93 51
f 51 93 52
f 93 94 52
f 52 94 53
f 94 95 53
f 53 95 54
f 95 96 54
f 54 96 55
f 96 97 55
f 55 97 7
f 97 6 7
f 3 4 98
f 4 221 98
f 98 221 99
f 221 222 99
f 99 222 100
f 222 223 100
f 100 223 101
f 223 224 101
f 101 224 102
f 224 225 102
f 102 225 103
f 225 226 103
f 103 226 104
f 226 227 104
f 104 227 105
f 227 228 105
f 105 228 106
f 228 229 106
f 106 229 107
f 229 230 107
f 107 230 108
f 230 231 108
f 108 231 109
f 231 232 109
f 109 232 110
f 232 233 110
f 110 233 111
f 233 234 111
f 111 234 112
f 234 235 112
f 112 235 113
f 235 236 113
f 113 236 114
f 236 237 114
f 114 237 115
f 237 238 115
f 115 238 116
f 238 239 116
f 116 239 117
f 239 240 117
f 117 240 118
f 240 241 118
f 118 241 119
f 241 242 119
f 119 242 120
f 242 243 120
f 120 243 121
f 243 244 121
f 121 244 122
f 244 245 122
f 122 245 123
f 245 246 123
f 123 246 124
f 246 247 124
f 124 247 125
f 247 248 125
f 125 248 126
f 248 249 126
f 126 249 127
f 249 250 127
f 127 250 128
f 250 251 128
f 128 251 129
f 251 252 129
f 129 252 130
f 252 253 130
f 130 253 131
f 253 254 131
f 131 254 132
f 254 255 132
f 132 255 133
f 255 256 133
f 133 256 134
f 256 257 134
f 134 257 135
f 257 258 135
f 135 258 136
f 258 259 136
f 136 259 137
f 259 260 137
f 137 260 138
f 260 261 138
f 138 261 139
f 261 262 139
f 139 262 140
f 262 263 140
f 140 263 141
f 263 264 141
f 141 264 142
f 264 265 142
f 142 265 143
f 265 266 143
f 143 266 144
f 266 267 144
f 144 267 145
f 267 268 145
f 145 268 146
f 268 269 146
f 146 269 147
f 269 270 147
f 147 270 148
f 270 271 148
f 148 271 149
f 271 272 149
f 149 272 150
f 272 273 150
f 150 273 151
f 273 274 151
f 151 274 152
f 274 275 152
f 152 275 153
f 275 276 153
f 153 276 154
f 276 277 154
f 154 277 155
f 277 278 155
f 155 278 156
f 278 279 156
f 156 279 157
f 279 280 157
f 157 280 158
f 280 281 158
f 158 281 159
f 281 282 159
f 159 282 160
f 282 283 160
f 160 283 161
f 283 284 161
f 161 284 162
f 284 285 162
f 162 285 163
f 285 286 163
f 163 286 164
f 286 287 164
f 164 287 165
f 287 288 165
f 165 288 166
f 288 289 166
f 166 289 167
f 289 290 167
f 167 290 168
f 290 291 168
f 168 291 169
f 291 292 169
f 169 292 170
f 292 293 170
f 170 293 171
f 293 294 171
f 171 294 172
f 294 295 172
f 172 295 173
f 295 296 173
f 173 296 174
f 296 297 174
f 174 297 175
f 297 298 175
f 175 298 176
f 298 299 176
f 176 299 177
f 299 300 177
f 177 300 178
f 300 301 178
f 178 301 179
f 301 302 179
f 179 302 180
f 302 303 180
f 180 303 181
f 303 304 181
f 181 304 182
f 304 305 182
f 182 305 183
f 305 306 183
f 183 306 184
f 306 307 184
f 184 307 185
f 307 308 185
f 185 308 186
f 308 309 186
f 186 309 187
f 309 310 187
f 187 310 188
f 310 311 188
f 188 311 189
f 311 312 189
f 189 312 190
f 312 313 190
f 190 313 191
f 313 314 191
f 191 314 192
f 314 315 192
f 192 315 193
f 315 316 193
f 193 316 194
f 316 317 194
f 194 317 195
f 317 318 195
f 195 318 196
f 318 319 196
f 196 319 197
f 319 320 197
f 197 320 198
f 320 321 198
f 198 321 199
f 321 322 199
f 199 322 200
f 322 323 200
f 200 323 201
f 323 324 201
f 201 324 202
f 324 325 202
f 202 325 203
f 325 326 203
f 203 326 204
f 326 327 204
f 204 327 205
f 327 328 205
f 205 328 206
f 328 329 206
f 206 329 207
f 329 330 207
f 207 330 208
f 330 331 208
f 208 331 209
f 331 332 209
f 209 332 210
f 332 333 210
f 210 333 211
f 333 334 211
f 211 334 212
f 334 335 212
f 212 335 213
f 335 336 213
f 213 336 214
f 336 337 214
f 214 337 215
f 337 338 215
f 215 338 216
f 338 339 216
f 216 339 217
f 339 340 217
f 217 340 218
f 340 341 218
f 218 341 219
f 341 342 219
f 219 342 220
f 342 343 220
f 220 343 10
f 343 9 10
f 346 350 347
f 350 351 347
f 347 351 348
f 351 352 348
f 348 352 349
f 352 353 349
f 349 353 344
f 353 345 344
f 354 426 355
f 426 427 355
f 355 427 356
f 427 428 356
f 356 428 357
f 428 429 357
f 357 429 358
f 429 430 358
f 358 430 359
f 430 431 359
f 359 431 360
f 431 432 360
f 360 432 361
f 432 433 361
f 361 433 362
f 433 434 362
f 362 434 363
f 434 435 363
f 363 435 364
f 435 436 364
f 364 436 365
f 436 437 365
f 365 437 366
f 437 438 366
f 366 438 367
f 438 439 367
f 367 439 368
f 439 440 368
f 368 440 369
f 440 441 369
f 369 441 370
f 441 442 370
f 370 442 371
f 442 443 371
f 371 443 372
f 443 444 372
f 372 444 373
f 444 445 373
f 373 445 374
f 445 446 374
f 374 446 375
f 446 447 375
f 375 447 376
f 447 448 376
f 376 448 377
f 448 449 377
f 377 449 378
f 449 450 378
f 378 450 379
f 450 451 379
f 379 451 380
f 451 452 380
f 380 452 381
f 452 453 381
f 381 453 382
f 453 454 382
f 382 454 383
f 454 455 383
f 383 455 384
f 455 456 384
f 384 456 385
f 456 457 385
f 385 457 386
f 457 458 386
f 386 458 387
f 458 459 387
f 387 459 388
f 459 460 388
f 388 460 389
f 460 461 389
f 389 461 390
f 461 462 390
f 390 462 391
f 462 463 391
f 391 463 392
f 463 464 392
f 392 464 393
f 464 465 393
f 393 465 394
f 465 466 394
f 394 466 395
f 466 467 395
f 395 467 396
f 467 468 396
f 396 468 397
f 468 469 397
f 397 469 398
f 469 470 398
f 398 470 399
f 470 471 399
f 399 471 400
f 471 472 400
f 400 472 401
f 472 473 401
f 401 473 402
f 473 474 402
f 402 474 403
f 474 475 403
f 403 475 404
f 475 476 404
f 404 476 405
f 476 477 405
f 405 477 406
f 477 478 406
f 406 478 407
f 478 479 407
f 407 479 408
f 479 480 408
f 408 480 409
f 480 481 409
f 409 481 410
f 481 482 410
f 410 482 411
f 482 483 411
f 411 483 412
f 483 484 412
f 412 484 413
f 484 485 413
f 413 485 414
f 485 486 414
f 414 486 415
f 486 487 415
f 415 487 416
f 487 488 416
f 416 488 417
f 488 489 417
f 417 489 418
f 489 490 418
f 418 490 419
f 490 491 419
f 419 491 420
f 491 492 420
f 420 492 421
f 492 493 421
f 421 493 422
f 493 494 422
f 422 494 423
f 494 495 423
f 423 495 424
f 495 496 424
f 424 496 425
f 496 497 425
f 425 497 350
f 497 498 350
f 350 498 346
f 498 499 346
f 346 499 354
f 499 426 354
o R
v 304 -11 0
v 313 -17 0
v 314 -16 0
v 315 -15 1
v 554 -14 0
v 549 -16 0
v 549 -17 1
v 531 -33 0
v 531 -32 0
v 524 -31 1
v 518 -66 0
v 523 -32 0
v 517 -26 1
v 509 -33 0
v 509 -32 0
v 429 -31 1
v 441 -35 0
v 434 -36 0
v 419 -52 0
v 415 -59 0
v 418 -53 0
v 398 -33 0
v 388 -35 0
v 388 -34 0
v 378 -30 0
v 367 -41 0
v 366 -40 0
v 361 -39 0
v 359 -41 0
v 358 -40 0
v 351 -33 0
v 346 -34 0
v 345 -35 0
v 340 -30 0
v 333 -31 0
v 332 -32 0
v 315 -15 0
v 314 -13 0
v 555 -12 0
v 563 -9 0
v 264 -7 0
v 563 -8 0
v 577 -5 1
v 577 -4 0
v 577 -3 0
v 614 -2 1
v 521 -95 0
v 520 -94 0
v 519 -93 0
v 468 -143 0
v 516 -94 0
v 470 -48 0
v 470 -47 0
v 470 -46 0
v 484 -40 0
v 456 -41 0
v 456 -42 0
v 456 -43 1
v 460 -46 0
v 460 -47 0
v 433 -85 1
v 385 -37 0
v 384 -36 0
v 378 -30 1
v 398 -32 0
v 399 -31 0
v 414 -24 0
v 420 -30 0
v 421 -29 0
v 422 -28 0
v 428 -29 0
v 429 -30 0
v 429 -31 0
v 503 -34 0
v 502 -36 0
v 502 -37 0
v 498 -41 0
v 497 -42 0
v 490 -43 0
v 527 -80 0
v 528 -79 0
v 587 -20 0
v 587 -19 0
v 586 -18 0
v 578 -17 1
v 575 -14 0
v 574 -13 0
v 573 -12 1
v 570 -13 0
v 569 -14 0
v 538 -45 0
v 533 -35 0
v 533 -34 0
v 549 -17 0
v 335 -18 0
v 335 -19 0
v 335 -20 1
v 340 -25 0
v 341 -26 0
v 362 -27 1
v 366 -31 0
v 367 -32 0
v 361 -39 1
v 466 -144 0
v 467 -145 0
v 519 -93 1
v 589 -22 0
v 588 -21 0
v 587 -20 1
v 526 -78 0
v 582 -21 0
v 578 -17 0
v 578 -16 0
v 578 -15 0
v 614 -2 0
v 615 -1 0
v 616 0 0
v 0 0 1
v 53 -20 0
v 43 -21 0
v 43 -22 1
v 45 -24 0
v 46 -25 0
v 83 -67 0
v 55 -22 0
v 55 -21 0
v 60 -17 0
v 60 -16 0
v 60 -15 0
v 55 -9 0
v 260 -10 0
v 259 -12 0
v 264 -18 0
v 265 -19 0
v 266 -20 0
v 272 -21 0
v 275 -24 0
v 276 -25 0
v 197 -109 1
v 199 -110 0
v 199 -111 0
v 197 -114 1
v 163 -148 0
v 84 -69 0
v 83 -68 0
v 40 -24 0
v 42 -23 0
v 43 -22 0
v 48 -23 0
v 49 -24 0
v 83 -67 1
v 94 -51 0
v 95 -50 0
v 96 -49 1
v 106 -38 0
v 106 -37 0
v 100 -30 1
v 153 -31 0
v 154 -32 0
v 170 -27 1
v 160 -36 0
v 160 -37 0
v 170 -48 1
v 171 -49 0
v 172 -50 0
v 167 -66 1
v 195 -94 0
v 226 -63 0
v 227 -62 0
v 214 -46 0
v 215 -45 0
v 216 -44 0
v 225 -34 0
v 225 -33 0
v 237 -24 0
v 171 -25 0
v 170 -26 0
v 86 -18 1
v 81 -19 0
v 81 -20 0
v 76 -26 1
v 69 -18 0
v 73 -14 0
v 60 -17 1
v 54 -18 0
v 53 -19 0
v 0 0 0
v 183 -183 0
v 184 -182 0
v 185 -181 0
v 188 -182 0
v 193 -188 0
v 190 -180 1
v 329 -36 0
v 330 -35 0
v 304 -11 1
v 278 -23 0
v 278 -22 0
v 272 -21 1
v 230 -63 0
v 229 -64 0
v 227 -62 1
v 208 -42 0
v 209 -41 0
v 198 -36 1
v 198 -35 0
v 210 -34 0
v 189 -33 1
v 181 -34 0
v 180 -35 0
v 170 -27 0
v 161 -34 0
v 160 -35 0
v 154 -33 0
v 139 -37 0
v 138 -38 0
v 118 -36 0
v 133 -44 0
v 134 -45 0
v 197 -109 0
v 280 -25 0
v 280 -24 0
l 500 501 502 503 504 505 506 507 508 509 510 511 512 513 514 515 516 517 518 519 520 521 522 523 524 525 526 527 528 529 530 531 532 533 534 535 536 537 538 539 540 541 542 543 544 545 546 547 548 549 550 551 552 553 554 555 556 557 558 559 560 561 562 563 564 565 566 567 568 569 570 571 572 573 574 575 576 577 578 579 580 581 582 583 584 585 586 587 588 589 590 591 592 593 594 595 596 597 598 599 600 601 602 603 604 605 606 607 608 609 610 611 612 613 614 615 616 617 618 619 620 621 622 623 624 625 626 627 628 629 630 631 632 633 634 635 636 637 638 639 640 641 642 643 644 645 646 647 648 649 650 651 652 653 654 655 656 657 658 659 660 661 662 663 664 665 666 667 668 669 670 671 672 673 674 675 676 677 678 679 680 681 682 683 684 685 686 687 688 689 690 691 692 693 694 695 696 697 698 699 700 701 702 703 704 705 706 707 708 709 710 711 712 713 714 715 716 717 718 719 720 721 500
o axis_a
v 118 -36 1
v 136 -43 0
v 137 -42 0
v 138 -41 0
v 144 -42 0
v 160 -58 0
v 170 -48 0
v 180 -37 0
v 180 -36 0
v 189 -33 0
v 211 -32 0
v 212 -31 0
v 215 -30 1
v 216 -31 0
v 223 -32 0
v 216 -44 1
v 218 -46 0
v 239 -25 0
v 243 -21 1
v 243 -20 0
v 243 -19 0
v 254 -11 1
v 75 -15 0
v 76 -17 0
v 76 -26 0
v 76 -27 0
v 76 -28 0
v 96 -49 0
v 97 -50 0
v 99 -51 0
v 83 -68 1
v 82 -69 0
v 75 -70 0
v 185 -181 1
v 194 -190 0
v 195 -189 0
v 351 -33 1
v 357 -32 0
v 358 -31 0
v 362 -27 0
v 377 -28 0
v 378 -29 0
v 414 -24 1
v 404 -34 0
v 403 -35 0
v 398 -33 1
v 395 -36 0
v 393 -37 0
v 426 -71 1
v 451 -45 0
v 451 -44 0
v 456 -43 0
v 462 -44 0
v 462 -45 0
v 484 -40 1
v 484 -39 0
v 485 -38 0
v 502 -37 1
v 503 -38 0
v 504 -39 0
v 517 -26 0
v 522 -28 0
v 523 -27 0
v 527 -23 0
v 413 -22 0
v 412 -21 0
v 335 -20 0
v 334 -21 0
v 333 -22 0
v 340 -30 1
v 334 -36 0
v 333 -37 0
v 190 -180 0
v 199 -116 0
v 198 -115 0
v 197 -114 0
v 195 -111 0
v 195 -110 0
l 722 723 724 725 726 727 728 729 730 731 732 733 734 735 736 737 738 739 740 741 742 743 744 745 746 747 748 749 750 751 752 753 754 755 756 757 758 759 760 761 762 763 764 765 766 767 768 769 770 771 772 773 774 775 776 777 778 779 780 781 782 783 784 785 786 787 788 789 790 791 792 793 794 795 796 797 798 799 722
